# File created by Blade
# Date/Time:  Fri Jan 16 19:49:56 2015
# Frame Rate: 120.000 fps
#------------------------------------------------------
:FULLY-SPECIFIED
:DEGREES
297
root 20.444934 35.176925 -12.777966 -127.655122 3.190328 -177.556883
Spine 52.237860 2.504629 -8.100312
Head -12.218792 2.362400 0.952171
LeftShoulder -21.256467 14.288102 8.444603
LeftArm -58.109447 14.842884 -104.500444
LeftForeArm 14.337140 -0.000000 -0.205699
LeftHand -1.550781 -0.000000 -45.118360
LeftHandThumb1 -26.253704 0.000000 33.147579
RightShoulder -26.731475 -48.405133 -0.966045
RightArm -20.141422 -29.976268 89.172934
RightForeArm -32.556455 -0.000000 8.580124
RightHand 4.614824 0.000000 48.716127
RightHandThumb1 -24.326973 -0.000000 -32.862282
LeftUpLeg -55.011033 7.960245 2.853295
LeftLeg -9.369852 -0.000000 0.000000
LeftFoot -4.977939 32.323360 -8.720633
LeftToeBase 27.065804 -0.000000 -0.000000
RightUpLeg -55.929567 -1.504032 -2.621603
RightLeg -7.216993 -0.000000 0.000000
RightFoot -6.096702 -11.112604 20.346745
RightToeBase 29.689410 -0.000000 -0.000000
298
root 20.449957 35.170374 -12.725069 -127.106064 3.270939 -177.546838
Spine 52.777592 2.622595 -8.311922
Head -12.427121 2.383256 1.157380
LeftShoulder -21.178194 14.521443 8.582625
LeftArm -58.109971 14.732133 -104.525195
LeftForeArm 14.393366 -0.000000 -0.299582
LeftHand -1.446805 -0.000000 -45.010676
LeftHandThumb1 -26.253704 0.000000 33.147579
RightShoulder -26.627802 -48.557905 -1.045832
RightArm -20.205593 -30.027593 89.254970
RightForeArm -32.833504 -0.000000 8.561986
RightHand 4.670255 -0.000000 48.750282
RightHandThumb1 -24.326973 -0.000000 -32.862282
LeftUpLeg -55.638550 8.034278 2.761282
LeftLeg -9.356972 -0.000000 0.000000
LeftFoot -4.913002 32.347755 -8.701661
LeftToeBase 27.111676 -0.000000 -0.000000
RightUpLeg -56.611181 -1.473147 -2.605072
RightLeg -7.193191 -0.000000 0.000000
RightFoot -5.847417 -11.223521 20.091614
RightToeBase 29.139757 -0.000000 -0.000000
299
root 20.452017 35.164425 -12.674036 -126.553143 3.334698 -177.551435
Spine 53.323700 2.713619 -8.431111
Head -12.619027 2.363508 1.209069
LeftShoulder -21.021834 14.702842 8.655425
LeftArm -58.156485 14.565553 -104.402901
LeftForeArm 14.443895 -0.000000 -0.316481
LeftHand -1.538322 -0.000000 -44.913899
LeftHandThumb1 -26.253704 0.000000 33.147579
RightShoulder -26.672919 -48.717984 -1.063627
RightArm -20.265348 -30.030618 89.316463
RightForeArm -33.088617 0.000000 8.535359
RightHand 4.681960 -0.000000 48.880294
RightHandThumb1 -24.326973 -0.000000 -32.862282
LeftUpLeg -56.278347 8.104708 2.624905
LeftLeg -9.351036 -0.000000 0.000000
LeftFoot -4.822158 32.353390 -8.674617
LeftToeBase 27.105868 -0.000000 -0.000000
RightUpLeg -57.307450 -1.463261 -2.586269
RightLeg -7.128865 -0.000000 0.000000
RightFoot -5.691004 -11.320657 19.854020
RightToeBase 29.357953 -0.000000 -0.000000
300
root 20.455546 35.158179 -12.628146 -126.025841 3.364038 -177.544228
Spine 53.905998 2.773258 -8.561474
Head -12.850544 2.290244 1.306239
LeftShoulder -20.951974 14.865401 8.732841
LeftArm -58.236727 14.478945 -104.415589
LeftForeArm 14.419458 -0.000000 -0.331263
LeftHand -1.496912 0.000000 -44.903567
LeftHandThumb1 -26.253704 0.000000 33.147579
RightShoulder -26.693297 -48.924434 -1.050043
RightArm -20.224212 -30.126490 89.334512
RightForeArm -32.795846 0.000000 8.469775
RightHand 4.422767 0.000000 48.859501
RightHandThumb1 -24.326973 -0.000000 -32.862282
LeftUpLeg -56.897866 8.164518 2.526505
LeftLeg -9.320245 -0.000000 0.000000
LeftFoot -4.750150 32.336434 -8.628181
LeftToeBase 27.099783 -0.000000 -0.000000
RightUpLeg -57.957553 -1.458231 -2.534503
RightLeg -7.085063 -0.000000 0.000000
RightFoot -5.565494 -11.442595 19.665300
RightToeBase 29.524605 -0.000000 -0.000000
301
root 20.459644 35.152510 -12.579787 -125.474941 3.385022 -177.540074
Spine 54.466778 2.815317 -8.666388
Head -13.106715 2.228549 1.350111
LeftShoulder -20.900081 15.075825 8.791865
LeftArm -58.278466 14.437068 -104.368474
LeftForeArm 14.583089 -0.000000 -0.304161
LeftHand -1.652626 -0.000000 -44.784231
LeftHandThumb1 -26.253704 0.000000 33.147579
RightShoulder -26.687015 -49.016276 -1.124943
RightArm -20.290355 -30.063818 89.345635
RightForeArm -33.002624 0.000000 8.351467
RightHand 4.557741 -0.000000 48.814716
RightHandThumb1 -24.326973 -0.000000 -32.862282
LeftUpLeg -57.571193 8.216606 2.431128
LeftLeg -9.242426 -0.000000 0.000000
LeftFoot -4.716175 32.322686 -8.614425
LeftToeBase 27.097950 -0.000000 -0.000000
RightUpLeg -58.630855 -1.447833 -2.493382
RightLeg -7.031392 -0.000000 0.000000
RightFoot -5.406329 -11.588297 19.410759
RightToeBase 29.457977 -0.000000 -0.000000
302
root 20.459150 35.147683 -12.538412 -124.971457 3.464979 -177.563125
Spine 55.073534 2.891236 -8.849944
Head -13.341865 2.191235 1.406910
LeftShoulder -20.815281 15.315945 8.867366
LeftArm -58.246920 14.291712 -104.182079
LeftForeArm 14.807510 -0.000000 -0.288986
LeftHand -1.456788 -0.000000 -44.745108
LeftHandThumb1 -26.253704 0.000000 33.147579
RightShoulder -26.661095 -49.170905 -1.144260
RightArm -20.374137 -29.967394 89.364205
RightForeArm -33.381333 -0.000000 8.351652
RightHand 4.637489 0.000000 48.783504
RightHandThumb1 -24.326973 -0.000000 -32.862282
LeftUpLeg -58.171444 8.271850 2.271185
LeftLeg -9.180945 -0.000000 0.000000
LeftFoot -4.663703 32.298127 -8.586199
LeftToeBase 27.038132 -0.000000 -0.000000
RightUpLeg -59.250641 -1.437861 -2.509292
RightLeg -6.987364 -0.000000 0.000000
RightFoot -5.271531 -11.714418 19.174919
RightToeBase 29.361259 -0.000000 -0.000000
303
root 20.456287 35.141402 -12.504192 -124.492010 3.493068 -177.600013
Spine 55.710958 2.909506 -8.982499
Head -13.556161 2.169252 1.457745
LeftShoulder -20.736958 15.538940 8.899227
LeftArm -58.234338 14.216153 -104.115971
LeftForeArm 14.814724 -0.000000 -0.304639
LeftHand -1.550917 0.000000 -44.667756
LeftHandThumb1 -26.253704 0.000000 33.147579
RightShoulder -26.642717 -49.311156 -1.196870
RightArm -20.420126 -29.955945 89.390662
RightForeArm -33.397787 -0.000000 8.264841
RightHand 4.702683 -0.000000 48.738403
RightHandThumb1 -24.326973 -0.000000 -32.862282
LeftUpLeg -58.752229 8.272846 2.157906
LeftLeg -9.101388 -0.000000 0.000000
LeftFoot -4.649954 32.287356 -8.550339
LeftToeBase 27.043258 -0.000000 -0.000000
RightUpLeg -59.805174 -1.454145 -2.528513
RightLeg -6.984721 -0.000000 0.000000
RightFoot -5.171004 -11.851277 18.951239
RightToeBase 29.315969 -0.000000 -0.000000
304
root 20.454542 35.137295 -12.468279 -124.009396 3.534331 -177.620606
Spine 56.348560 2.972223 -9.080792
Head -13.767902 2.066289 1.469327
LeftShoulder -20.636153 15.657356 8.976692
LeftArm -58.343580 14.114727 -104.034026
LeftForeArm 14.975290 -0.000000 -0.317478
LeftHand -1.552729 -0.000000 -44.790980
LeftHandThumb1 -26.253704 0.000000 33.147579
RightShoulder -26.748543 -49.478540 -1.168004
RightArm -20.447781 -29.949495 89.396208
RightForeArm -33.518362 -0.000000 8.232351
RightHand 4.720519 -0.000000 48.715578
RightHandThumb1 -24.326973 -0.000000 -32.862282
LeftUpLeg -59.338043 8.286756 2.060886
LeftLeg -9.015702 -0.000000 0.000000
LeftFoot -4.639842 32.309092 -8.544520
LeftToeBase 27.070997 -0.000000 -0.000000
RightUpLeg -60.385121 -1.448953 -2.549976
RightLeg -6.944743 -0.000000 0.000000
RightFoot -5.053265 -11.994307 18.725634
RightToeBase 29.094589 -0.000000 -0.000000
305
root 20.453851 35.132137 -12.434636 -123.512239 3.572015 -177.629280
Spine 56.931328 2.975823 -9.233291
Head -13.891194 2.080408 1.449412
LeftShoulder -20.609559 15.887301 8.983167
LeftArm -58.378807 14.114733 -104.052063
LeftForeArm 14.967898 0.000000 -0.375998
LeftHand -1.441872 -0.000000 -44.737187
LeftHandThumb1 -26.253704 0.000000 33.147579
RightShoulder -26.710154 -49.652535 -1.263648
RightArm -20.510977 -29.937136 89.415624
RightForeArm -33.504245 -0.000000 8.213121
RightHand 4.609215 -0.000000 48.776980
RightHandThumb1 -24.326973 -0.000000 -32.862282
LeftUpLeg -59.936271 8.301925 1.990423
LeftLeg -8.919857 -0.000000 0.000000
LeftFoot -4.628383 32.330124 -8.491140
LeftToeBase 27.068874 -0.000000 -0.000000
RightUpLeg -60.978856 -1.432418 -2.565511
RightLeg -6.895612 -0.000000 0.000000
RightFoot -4.952131 -12.132692 18.506167
RightToeBase 28.844460 -0.000000 -0.000000
306
root 20.449842 35.127343 -12.399129 -122.972677 3.555822 -177.655597
Spine 57.433795 2.899427 -9.302651
Head -13.892694 2.084792 1.314374
LeftShoulder -20.531063 16.120276 8.955233
LeftArm -58.426429 14.104325 -104.087965
LeftForeArm 14.926151 0.000000 -0.448451
LeftHand -1.502855 -0.000000 -44.663464
LeftHandThumb1 -26.253704 0.000000 33.147579
RightShoulder -26.669571 -49.832765 -1.401621
RightArm -20.414550 -29.180891 89.190111
RightForeArm -34.489384 -0.000000 7.992254
RightHand 4.878354 0.000000 48.878450
RightHandThumb1 -24.326973 -0.000000 -32.862282
LeftUpLeg -60.596033 8.258939 1.964958
LeftLeg -8.804432 -0.000000 0.000000
LeftFoot -4.636054 32.372528 -8.484981
LeftToeBase 27.076783 -0.000000 -0.000000
RightUpLeg -61.609580 -1.463192 -2.569043
RightLeg -6.848945 -0.000000 0.000000
RightFoot -4.893658 -12.296135 18.318220
RightToeBase 28.444658 -0.000000 -0.000000
